<?xml version="1.0" standalone="no"?><!DOCTYPE svg PUBLIC "-//W3C//DTD SVG 1.1//EN" "http://www.w3.org/Graphics/SVG/1.1/DTD/svg11.dtd"><svg t="1759930789235" class="icon" viewBox="0 0 1024 1024" version="1.1" xmlns="http://www.w3.org/2000/svg" p-id="4890" xmlns:xlink="http://www.w3.org/1999/xlink" width="200" height="200"><path d="M970.801006 184.617046a46.947818 46.947818 0 0 0-19.966902-14.130423 16331.133788 16331.133788 0 0 0-240.114794-96.148312C648.258746 49.558874 586.310153 24.779437 523.849588 0h-25.598592L481.253531 7.065211c-122.514862 48.381339-244.415357 97.325847-366.315853 145.707187-15.615141 6.502042-30.71831 12.389719-46.947817 18.89176-12.492113 5.27331-21.246831 13.567254-21.246832 27.134508 0 13.464859 7.474789 22.373169 20.632465 27.64648 1.791901 1.228732 4.966127 1.843099 6.860423 2.969436 138.744369 58.415987 278.205499 116.831974 416.949868 175.811131a44.797536 44.797536 0 0 0 40.650564 0c119.391833-50.17324 237.554934-100.295284 356.332402-150.417327 23.08993-8.857113 45.002325-18.891761 67.477888-28.36324 19.403733-8.191549 26.264155-27.08331 15.000775-41.8281m-629.469379 38.90986c-31.895846 23.601902-92.513312 24.165071-126.303453 0.614366-22.526761-15.359155-22.526761-39.524226-0.614366-55.497747a99.066551 99.066551 0 0 1 54.371409-17.663029c31.28148 0 53.142677 4.095775 72.54641 17.663029 21.246831 15.973521 21.246831 39.575423 0 54.883381m233.151977 0c-31.230282 24.165071-95.021974 24.165071-126.91782 0-21.195634-15.922324-20.581268-39.524226 1.27993-54.883381 19.403733-13.516057 40.650564-17.663029 69.372184-17.663029 15.615141 0 37.527536 4.095775 55.65134 16.485493 21.861198 16.53669 22.526761 40.138592 0.614366 56.00972m234.431906 1.177535c-31.895846 23.550705-92.513312 24.165071-126.303453 0.563169-22.526761-15.871127-22.526761-39.524226 0-55.44655 18.789367-14.130423 40.036198-18.277395 62.562959-18.277395 22.475564 0 43.722395 4.095775 62.460564 17.714226 23.141127 15.922324 23.141127 38.90986 1.27993 55.44655M466.35515 437.735925c-30.71831-12.389719-61.283029-25.342606-92.513311-38.90986C265.662189 352.748599 158.148102 307.951063 50.019649 262.487963 39.933804 257.777822 29.387184 255.473949 18.789367 260.696062 4.249366 267.761273 0 280.150992 0 294.332612v496.100714c0 29.540775 13.106479 50.17324 41.879297 61.948593 133.112679 55.44655 265.047822 110.944298 397.546135 166.954018 28.772817 11.775352 49.405283-0.614366 49.405282-30.103945V732.119733c0-86.164861 0-171.561764 1.27993-257.777822 1.791901-17.714226-5.63169-29.489578-23.755494-36.605986m-196.341201 242.469864c-15.051972 21.246831-40.650564 23.038733-58.160001 2.918239-19.966902-21.81-25.598592-48.278945-22.424367-75.413452 1.791901-14.744789 7.474789-29.489578 14.437606-42.493663 13.106479-22.373169 39.421832-22.987536 57.494438-4.095775 15.615141 15.922324 23.755493 39.524226 23.755494 59.593523 0 25.956972-3.737394 43.005635-15.000775 59.593522m704.473254-417.769023L558.254096 437.735925c-17.509437 7.679578-25.035423 18.840564-25.035423 36.554789v257.214653c0 86.676833 0 172.278525 0.614366 258.955358 0 27.748874 20.632465 40.701761 47.562184 29.540775l402.563459-169.309088c26.878522-11.263381 39.985001-31.28148 39.985001-58.36479V293.769443c-0.614366-28.875212-21.861198-42.493663-49.354085-31.230283m-259.46733 578.016209c-17.509437 20.069296-42.493663 18.942958-58.774367-2.918239-22.526761-31.895846-19.352536-89.134298 7.525986-118.060707 18.738169-20.632465 43.108029-18.840564 58.774367 4.146972 9.369085 13.567254 14.437606 33.022184 14.437606 55.446551 0 20.069296-5.63169 42.493663-21.861197 61.436621m181.801201-293.257471c-17.45824 20.069296-42.493663 18.891761-58.723171-2.91824-21.912395-31.28148-19.403733-87.342396 5.631691-115.603242 20.632465-23.550705 45.616691-21.81 62.460564 4.761339 8.191549 11.775352 13.157676 28.875212 13.157677 48.330141-1.228732 23.601902-5.63169 47.203804-22.526761 65.532396" fill="#8a8a8a" p-id="4891"></path></svg>